<svg xmlns="http://www.w3.org/2000/svg" width="48" height="48" viewBox="0 0 48 48" aria-hidden="true">
  <path
    fill="#FFC107"
    d="M43.61 20.08H42V20H24v8h11.3A12 12 0 0 1 24 36c-6.63 0-12-5.37-12-12s5.37-12 12-12c3.06 0 5.84 1.15 7.96 3.04l5.66-5.66A19.93 19.93 0 0 0 24 4C12.95 4 4 12.95 4 24s8.95 20 20 20 20-8.95 20-20c0-1.34-.14-2.65-.39-3.92Z"
  />
  <path
    fill="#FF3D00"
    d="m6.31 14.69 6.57 4.82A11.96 11.96 0 0 1 24 12c3.06 0 5.84 1.15 7.96 3.04l5.66-5.66A19.92 19.92 0 0 0 24 4C16.32 4 9.66 8.34 6.31 14.69Z"
  />
  <path
    fill="#4CAF50"
    d="M24 44c5.17 0 9.86-1.98 13.41-5.19l-6.19-5.24A11.95 11.95 0 0 1 24 36a12 12 0 0 1-11.28-7.95l-6.52 5.03A19.99 19.99 0 0 0 24 44Z"
  />
  <path
    fill="#1976D2"
    d="M43.61 20.08H42V20H24v8h11.3a12 12 0 0 1-5.62 6.57l6.19 5.24C40.34 35.68 44 30.35 44 24c0-1.34-.14-2.65-.39-3.92Z"
  />
</svg>
